<svg width="24" height="25" fill="none" xmlns="http://www.w3.org/2000/svg">
  <g clip-path="url(#a)" fill="#fff">
    <path d="M3.516 24.412h16.968A3.52 3.52 0 0 0 24 20.895V3.927A3.52 3.52 0 0 0 20.484.411H3.516A3.52 3.52 0 0 0 0 3.927v16.969a3.52 3.52 0 0 0 3.516 3.515ZM1.406 3.927c0-1.163.947-2.11 2.11-2.11h16.968c1.163 0 2.11.947 2.11 2.11v16.969c0 1.163-.947 2.11-2.11 2.11H3.516a2.112 2.112 0 0 1-2.11-2.11V3.927Z"/>
    <path d="M12 18.74a6.335 6.335 0 0 0 6.328-6.329A6.335 6.335 0 0 0 12 6.083a6.335 6.335 0 0 0-6.328 6.328A6.335 6.335 0 0 0 12 18.74Zm0-11.25a4.927 4.927 0 0 1 4.922 4.921A4.927 4.927 0 0 1 12 17.333a4.927 4.927 0 0 1-4.922-4.922A4.927 4.927 0 0 1 12 7.49ZM19.031 7.49c1.163 0 2.11-.947 2.11-2.11 0-1.163-.947-2.11-2.11-2.11-1.163 0-2.11.947-2.11 2.11 0 1.163.947 2.11 2.11 2.11Zm0-2.813a.704.704 0 0 1 0 1.406.704.704 0 0 1 0-1.406Z"/>
  </g>
  <defs>
    <clipPath id="a">
      <path fill="#fff" transform="translate(0 .411)" d="M0 0h24v24H0z"/>
    </clipPath>
  </defs>
</svg>
