<svg width="28" height="28" viewBox="0 0 28 28" fill="none" xmlns="http://www.w3.org/2000/svg">
<path d="M13.9997 18.6667C16.577 18.6667 18.6663 16.5774 18.6663 14C18.6663 11.4227 16.577 9.33337 13.9997 9.33337C11.4223 9.33337 9.33301 11.4227 9.33301 14C9.33301 16.5774 11.4223 18.6667 13.9997 18.6667Z" stroke="#0A0A30" stroke-width="1.5"/>
<path d="M14.0895 5.71798C14.7339 5.71798 15.2562 5.19564 15.2562 4.55131C15.2562 3.90698 14.7339 3.38464 14.0895 3.38464C13.4452 3.38464 12.9229 3.90698 12.9229 4.55131C12.9229 5.19564 13.4452 5.71798 14.0895 5.71798Z" fill="#265BFF"/>
<path d="M4.55143 15.2564C5.19576 15.2564 5.7181 14.7341 5.7181 14.0898C5.7181 13.4454 5.19576 12.9231 4.55143 12.9231C3.9071 12.9231 3.38477 13.4454 3.38477 14.0898C3.38477 14.7341 3.9071 15.2564 4.55143 15.2564Z" fill="#265BFF"/>
<path d="M23.6286 15.2564C24.2729 15.2564 24.7952 14.7341 24.7952 14.0898C24.7952 13.4454 24.2729 12.9231 23.6286 12.9231C22.9842 12.9231 22.4619 13.4454 22.4619 14.0898C22.4619 14.7341 22.9842 15.2564 23.6286 15.2564Z" fill="#265BFF"/>
<path d="M14.0895 24.7949C14.7339 24.7949 15.2562 24.2725 15.2562 23.6282C15.2562 22.9839 14.7339 22.4615 14.0895 22.4615C13.4452 22.4615 12.9229 22.9839 12.9229 23.6282C12.9229 24.2725 13.4452 24.7949 14.0895 24.7949Z" fill="#265BFF"/>
</svg>
