<svg width="21" height="25" fill="none" xmlns="http://www.w3.org/2000/svg">
  <g clip-path="url(#a)" fill="#fff">
    <path d="M10.5008 24.411H.9749c-.7774 0-.9928-.2256-.9647-1.0152.1592-4.9824 4.1962-8.9213 9.17-8.9119 1.508 0 3.0347-.0376 4.5146.2068 4.1307.6863 7.3716 4.7098 7.3154 8.9025-.0094.5828-.2623.8178-.8805.8178h-9.6289Zm9.0576-1.4289c0-.094.0093-.1692 0-.2444-.281-3.2902-3.1847-6.3643-6.4724-6.7403-1.3113-.1504-2.6414-.1034-3.962-.1034-3.4095 0-6.3881 2.228-7.381 5.49-.1592.5077-.2342 1.0435-.356 1.6075 6.1071-.0094 12.1205-.0094 18.1714-.0094ZM16.7935 6.7472c-.0093 3.4877-2.8287 6.3173-6.2944 6.3173-3.4843 0-6.3224-2.8578-6.3037-6.3643C4.2141 3.2125 7.0429.4017 10.5179.4017c3.4656.0188 6.285 2.8672 6.2756 6.3455Zm-6.3037 4.9072c2.6976 0 4.8987-2.1904 4.9175-4.9072.0187-2.698-2.1825-4.926-4.8801-4.9354-2.7256-.0094-4.9455 2.2092-4.9362 4.926.0094 2.7168 2.2012 4.9166 4.8988 4.9166Z"/>
  </g>
  <defs>
    <clipPath id="a">
      <path fill="#fff" transform="translate(0 .4115)" d="M0 0h21v24H0z"/>
    </clipPath>
  </defs>
</svg>
