<svg width="21" height="25" fill="none" xmlns="http://www.w3.org/2000/svg">
  <g clip-path="url(#a)" fill="#fff">
    <path d="M10.5 24.411H.976c-.777 0-.993-.226-.965-1.015.16-4.983 4.196-8.921 9.17-8.912 1.508 0 3.035-.038 4.515.207 4.13.686 7.371 4.71 7.315 8.902-.01.583-.262.818-.88.818H10.5Zm9.058-1.429c0-.094.01-.17 0-.244-.28-3.29-3.184-6.365-6.472-6.74-1.311-.151-2.641-.104-3.962-.104a7.71 7.71 0 0 0-7.381 5.49c-.16.508-.234 1.043-.356 1.607 6.107-.009 12.12-.009 18.171-.009ZM16.794 6.747c-.01 3.488-2.83 6.318-6.295 6.318-3.484 0-6.322-2.858-6.304-6.365A6.327 6.327 0 0 1 10.518.402c3.465.019 6.285 2.867 6.276 6.345Zm-6.304 4.907c2.697 0 4.899-2.19 4.917-4.907.019-2.698-2.182-4.926-4.88-4.935-2.725-.01-4.945 2.209-4.936 4.926.01 2.717 2.201 4.916 4.899 4.916Z"/>
  </g>
  <defs>
    <clipPath id="a">
      <path fill="#fff" transform="translate(0 .411)" d="M0 0h21v24H0z"/>
    </clipPath>
  </defs>
</svg>
