<svg width="414" height="415" viewBox="0 0 414 415" fill="none" xmlns="http://www.w3.org/2000/svg">
<g filter="url(#filter0_d_190_463)">
<path d="M397.5 207.436C397.5 312.888 312.209 398.372 207 398.372C101.791 398.372 16.5 312.888 16.5 207.436C16.5 101.984 101.791 16.5 207 16.5C312.209 16.5 397.5 101.984 397.5 207.436Z" stroke="#FDEFFB" shape-rendering="crispEdges"/>
</g>
<g filter="url(#filter1_d_190_463)">
<path d="M386.508 207.961C386.508 307.33 306.137 387.883 206.997 387.883C107.857 387.883 27.4863 307.33 27.4863 207.961C27.4863 108.591 107.857 28.0387 206.997 28.0387C306.137 28.0387 386.508 108.591 386.508 207.961Z" stroke="#EBE4FF" shape-rendering="crispEdges"/>
</g>
<ellipse cx="281.825" cy="31.2103" rx="4.1863" ry="4.19586" fill="#FAD5FF"/>
<ellipse cx="25.4158" cy="266.702" rx="4.1863" ry="4.19586" fill="#FAD5FF"/>
<ellipse cx="300.141" cy="374.223" rx="4.1863" ry="4.19586" fill="#FAD5FF"/>
<ellipse cx="378.636" cy="263.032" rx="4.1863" ry="4.19586" fill="#7D79B1"/>
<defs>
<filter id="filter0_d_190_463" x="0" y="0" width="414" height="414.872" filterUnits="userSpaceOnUse" color-interpolation-filters="sRGB">
<feFlood flood-opacity="0" result="BackgroundImageFix"/>
<feColorMatrix in="SourceAlpha" type="matrix" values="0 0 0 0 0 0 0 0 0 0 0 0 0 0 0 0 0 0 127 0" result="hardAlpha"/>
<feOffset/>
<feGaussianBlur stdDeviation="8"/>
<feComposite in2="hardAlpha" operator="out"/>
<feColorMatrix type="matrix" values="0 0 0 0 1 0 0 0 0 1 0 0 0 0 1 0 0 0 1 0"/>
<feBlend mode="normal" in2="BackgroundImageFix" result="effect1_dropShadow_190_463"/>
<feBlend mode="normal" in="SourceGraphic" in2="effect1_dropShadow_190_463" result="shape"/>
</filter>
<filter id="filter1_d_190_463" x="6.98633" y="7.5387" width="400.021" height="400.844" filterUnits="userSpaceOnUse" color-interpolation-filters="sRGB">
<feFlood flood-opacity="0" result="BackgroundImageFix"/>
<feColorMatrix in="SourceAlpha" type="matrix" values="0 0 0 0 0 0 0 0 0 0 0 0 0 0 0 0 0 0 127 0" result="hardAlpha"/>
<feOffset/>
<feGaussianBlur stdDeviation="10"/>
<feComposite in2="hardAlpha" operator="out"/>
<feColorMatrix type="matrix" values="0 0 0 0 0.9625 0 0 0 0 0.967692 0 0 0 0 1 0 0 0 1 0"/>
<feBlend mode="normal" in2="BackgroundImageFix" result="effect1_dropShadow_190_463"/>
<feBlend mode="normal" in="SourceGraphic" in2="effect1_dropShadow_190_463" result="shape"/>
</filter>
</defs>
</svg>
