<svg width="54" height="52" viewBox="0 0 54 52" fill="none" xmlns="http://www.w3.org/2000/svg">
<path fill-rule="evenodd" clip-rule="evenodd" d="M5.15654 9.75055L18.6565 0H35.3435L48.8435 9.75055L54 25.5273L48.8435 41.304L35.3435 51.0545H18.6565L5.15654 41.304L0 25.5273L5.15654 9.75055ZM27 2.69498L20.734 0.671024L33.266 0.671024L27 2.69498ZM25.9078 3.04776L18.9144 0.788836L14.5922 6.70278L25.9078 3.04776ZM14.8993 7.30912L26.2667 3.6374L21.884 9.65405L14.8993 7.30912ZM13.7071 7.91387L6.41479 17.8917L13.6767 15.5787L13.7071 7.91387ZM13.674 16.2843L6.28598 18.6373L10.8131 24.8523L13.6555 20.9503L13.674 16.2843ZM14.3342 20.0185L14.3498 16.069L18.0755 14.8823L14.3342 20.0185ZM13.651 22.1006L11.2298 25.4243L13.6248 28.7122L13.651 22.1006ZM14.2962 29.6339L14.3296 21.1689L19.1607 14.5367L26.9388 12.0594L35.1815 14.8266L40.0016 21.4437L40.0681 29.8046L32.1744 40.3493L19.0587 36.172L14.2962 29.6339ZM13.6203 29.8501L10.8131 25.9964L6.34954 32.1241L13.6022 34.4341L13.6203 29.8501ZM14.2763 34.6488L14.2917 30.7718L17.9736 35.8264L14.2763 34.6488ZM13.5994 35.1378L6.11631 32.7544L13.5685 42.9511L13.5994 35.1378ZM14.2412 43.5328L14.2736 35.3525L18.6419 36.7439L26.4628 47.4805L14.2412 43.5328ZM36.2847 15.197L39.9924 20.287L39.9617 16.4315L36.2847 15.197ZM39.9561 15.7213L35.6018 14.2595L32.6696 10.2341L39.8941 7.93306L39.9561 15.7213ZM40.6386 16.6587L40.6749 21.2239L43.5435 25.162L48.0471 19.146L40.6386 16.6587ZM47.9638 18.4097L40.6329 15.9486L40.572 8.29578L47.9638 18.4097ZM34.4986 13.8891L28.0214 11.7145L31.9931 10.4496L34.4986 13.8891ZM26.9444 11.353L31.5765 9.87762L27.0655 3.68485L22.5536 9.87886L26.9444 11.353ZM21.4694 10.2231L18.7439 13.9648L14.3526 15.3635L14.3823 7.84381L21.4694 10.2231ZM22.1391 10.4479L25.8618 11.6978L19.829 13.6192L22.1391 10.4479ZM32.8538 40.5657L40.0769 30.9168L40.1722 42.8967L32.8538 40.5657ZM40.7449 30.0245L40.8432 42.3877L48.0876 32.4754L48.0547 32.4991L43.5361 26.2959L40.7449 30.0245ZM40.6841 22.3807L40.736 28.9124L43.1211 25.7263L40.6841 22.3807ZM27.9047 3.69275L39.3688 7.39575L32.253 9.66217L27.9047 3.69275ZM5.83152 19.1575V31.6912L10.3964 25.4244L5.83152 19.1575ZM27.7221 47.4208L39.8573 43.501L32.4278 41.1347L27.7221 47.4208ZM31.7484 40.9183L27.0692 47.169L19.727 37.0895L31.7484 40.9183ZM43.9585 25.7317L48.1685 31.5113V20.1078L43.9585 25.7317ZM13.5 7.05555L17.3726 1.75676L7.23399 9.07951L13.5 7.05555ZM7.234 41.975L17.3726 49.2978L13.5 43.999L7.234 41.975ZM12.825 43.0754L5.83152 33.5064V40.8165L12.825 43.0754ZM5.15652 32.5828V39.1324L1.28393 27.284L5.15652 32.5828ZM5.15652 19.6134L0.834345 25.5273L5.15652 31.4412V19.6134ZM5.15652 18.4717L1.28393 23.7705L5.15652 11.9221V18.4717ZM5.83152 17.5482V10.2381L12.825 7.97914L5.83152 17.5482ZM14.5922 44.3518L18.9144 50.2657L25.9078 48.0068L14.5922 44.3518ZM27 48.3596L20.734 50.3835H33.266L27 48.3596ZM36.6273 49.2978L46.766 41.975L40.5 43.999L36.6273 49.2978ZM39.4078 44.3518L28.0922 48.0068L35.0856 50.2657L39.4078 44.3518ZM41.175 43.0754L48.1685 40.8165V33.5064L41.175 43.0754ZM48.8435 32.5828V39.1325L52.7161 27.284L48.8435 32.5828ZM52.7161 23.7706L48.8435 11.922V18.4717L52.7161 23.7706ZM48.8435 31.4412L53.1656 25.5273L48.8435 19.6134V31.4412ZM48.1685 17.5482V10.2381L41.175 7.97914L48.1685 17.5482ZM40.5 7.05555L46.766 9.07953L36.6273 1.75672L40.5 7.05555ZM39.4078 6.70278L28.0922 3.04776L35.0856 0.788836L39.4078 6.70278Z" fill="white"/>
</svg>
