<svg width="31" height="33" viewBox="0 0 31 33" fill="none" xmlns="http://www.w3.org/2000/svg">
<g opacity="0.7">
<path d="M12.1135 12.9036L12.1487 13.0722L12.3168 13.1094L19.7963 14.7627L12.3168 16.4161L12.1487 16.4533L12.1135 16.6219L10.5155 24.2825L8.91745 16.6219L8.88227 16.4533L8.71409 16.4161L1.23464 14.7627L8.71409 13.1094L8.88227 13.0722L8.91745 12.9036L10.5155 5.24298L12.1135 12.9036Z" fill="#FDBE1C" stroke="#FDBE1C" stroke-width="0.532974"/>
<line x1="15.7222" y1="7.01596" x2="20.8253" y2="0.830393" stroke="#FDBE1C" stroke-width="0.532974"/>
<line x1="1.36014" y1="26.7884" x2="6.92715" y2="21.3761" stroke="#FDBE1C" stroke-width="0.532974"/>
<line x1="22.7388" y1="25.807" x2="15.7943" y2="21.7975" stroke="#FDBE1C" stroke-width="0.532974"/>
<line x1="23.2084" y1="14.8061" x2="30.0125" y2="15.1153" stroke="#FDBE1C" stroke-width="0.532974"/>
<path d="M23.0097 7.32484L23.0974 7.73255L23.4305 7.48167L23.8991 7.12881L23.6271 7.60384L23.4051 7.99147L23.8516 8.00268L24.3976 8.01639L23.8984 8.20286L23.47 8.36286L23.8204 8.65668L24.2292 8.9996L23.6882 8.82829L23.2775 8.69825L23.3445 9.12378L23.4328 9.68488L23.1101 9.18628L22.8864 8.84068L22.6627 9.18628L22.3399 9.68488L22.4282 9.12378L22.4952 8.69825L22.0846 8.82829L21.5435 8.9996L21.9524 8.65668L22.3027 8.36286L21.8744 8.20286L21.3752 8.01639L21.9212 8.00268L22.3677 7.99147L22.1457 7.60384L21.8737 7.12881L22.3422 7.48167L22.6754 7.73255L22.7631 7.32484L22.8864 6.75158L23.0097 7.32484Z" fill="#1C1B1B" stroke="#FDBE1C" stroke-width="0.532974"/>
<path d="M13.1132 28.82L13.2009 29.2277L13.5341 28.9768L14.0026 28.6239L13.7306 29.099L13.5086 29.4866L13.9551 29.4978L14.5011 29.5115L14.0019 29.698L13.5735 29.858L13.9239 30.1518L14.3327 30.4947L13.7917 30.3234L13.3811 30.1934L13.448 30.6189L13.5364 31.18L13.2136 30.6814L12.9899 30.3358L12.7662 30.6814L12.4434 31.18L12.5318 30.6189L12.5987 30.1934L12.1881 30.3234L11.6471 30.4947L12.0559 30.1518L12.4063 29.858L11.9779 29.698L11.4787 29.5115L12.0247 29.4978L12.4712 29.4866L12.2492 29.099L11.9772 28.6239L12.4458 28.9768L12.7789 29.2277L12.8666 28.82L12.9899 28.2467L13.1132 28.82Z" fill="#1B1B1B" stroke="#FDBE1C" stroke-width="0.532974"/>
<path d="M25.2062 22.3837L25.2158 22.4171L25.2866 22.6652L25.5368 22.6025L25.5705 22.594L25.5463 22.619L25.3669 22.8044L25.5463 22.9897L25.5705 23.0147L25.5368 23.0062L25.2866 22.9435L25.2158 23.1916L25.2062 23.225L25.1967 23.1916L25.1259 22.9435L24.8756 23.0062L24.8419 23.0147L24.8661 22.9897L25.0455 22.8044L24.8661 22.619L24.8419 22.594L24.8756 22.6025L25.1259 22.6652L25.1967 22.4171L25.2062 22.3837Z" fill="#FDBE1C" stroke="#FDBE1C" stroke-width="0.532974"/>
<path d="M15.9279 18.0531L15.9374 18.0865L16.0082 18.3346L16.2585 18.2719L16.2922 18.2634L16.268 18.2884L16.0886 18.4738L16.268 18.6591L16.2922 18.6841L16.2585 18.6757L16.0082 18.6129L15.9374 18.861L15.9279 18.8945L15.9183 18.861L15.8475 18.6129L15.5973 18.6757L15.5636 18.6841L15.5877 18.6591L15.7672 18.4738L15.5877 18.2884L15.5636 18.2634L15.5973 18.2719L15.8475 18.3346L15.9183 18.0865L15.9279 18.0531Z" fill="#FDBE1C" stroke="#FDBE1C" stroke-width="0.532974"/>
</g>
</svg>
