<svg width="170" height="48" viewBox="0 0 170 48" fill="none" xmlns="http://www.w3.org/2000/svg">
<path d="M64.0773 9.08307C64.0773 8.39707 63.9773 7.87665 63.7773 7.54548C63.5773 7.21431 63.1773 7.04872 62.5773 7.04872H62.1523V6.62292H67.7523C69.3273 6.62292 70.6773 6.85948 71.8523 7.35624C73.0023 7.853 73.5773 8.79921 73.5773 10.1949C73.5773 10.8336 73.3523 11.4013 72.8773 11.9217C72.4273 12.4421 71.7023 12.8443 70.7523 13.1518C72.0773 13.3647 73.0023 13.7195 73.5273 14.2636C74.0523 14.8076 74.3024 15.5173 74.3024 16.4162C74.3024 17.7882 73.7273 18.7581 72.5773 19.2785C71.4273 19.8225 70.0273 20.0828 68.3523 20.0828H64.0273V9.08307H64.0773ZM68.0773 12.8679C68.6773 12.8679 69.2273 12.7733 69.7523 12.5604C70.2773 12.3475 70.7023 12.04 71.0273 11.6142C71.3523 11.1884 71.5273 10.6916 71.5273 10.1239C71.5273 9.50886 71.3273 8.98845 70.9523 8.58631C70.5523 8.16052 70.0773 7.87665 69.4773 7.66376C68.8773 7.47451 68.2773 7.35624 67.6523 7.35624C67.1523 7.35624 66.6023 7.4272 66.0273 7.56913V12.8679H68.0773ZM71.1023 18.6634C71.8023 18.1667 72.1773 17.457 72.1773 16.5345C72.1773 15.6119 71.8273 14.9023 71.1273 14.4055C70.4273 13.9087 69.4023 13.6722 68.0773 13.6722H66.0273V19.1129C66.7273 19.3021 67.4023 19.3968 68.0773 19.3968C69.3773 19.3968 70.3773 19.1365 71.1023 18.6634Z" fill="white"/>
<path d="M77.5031 9.08307C77.5031 8.39707 77.4031 7.87665 77.2031 7.54548C77.0031 7.21431 76.6031 7.04872 76.0031 7.04872H75.5781V6.62292H77.5281C78.0531 6.62292 78.4531 6.69389 78.7281 6.81217C79.0031 6.93044 79.1781 7.16699 79.3031 7.52182C79.4281 7.853 79.4781 8.37341 79.4781 9.08307V18.2613L86.3531 6.62292H88.3031V20.1064H86.3531V8.46803L79.4281 20.1064H77.5031V9.08307Z" fill="white"/>
<path d="M92.425 9.08307C92.425 8.39707 92.325 7.87665 92.125 7.54548C91.925 7.21431 91.525 7.04872 90.925 7.04872H90.5V6.62292H99.575C100.8 6.62292 101.4 7.167 101.4 8.25514V9.79273H100.975C100.975 8.23148 100.075 7.45086 98.275 7.45086H94.375V12.3475H96.75C98.325 12.3475 99.675 12.6314 100.8 13.1754C101.925 13.7432 102.475 14.7367 102.475 16.2269C102.475 17.6936 101.925 18.7107 100.8 19.2785C99.675 19.8462 98.325 20.1064 96.75 20.1064H92.425V9.08307ZM99.275 18.5925C99.95 18.0721 100.3 17.2678 100.3 16.2269C100.3 15.1861 99.95 14.3818 99.275 13.8614C98.6 13.341 97.65 13.0571 96.425 13.0571C95.75 13.0571 95.075 13.1518 94.375 13.341V19.0892C95.075 19.2785 95.75 19.3731 96.425 19.3731C97.625 19.3968 98.6 19.1365 99.275 18.5925Z" fill="white"/>
<path d="M105.55 9.08307C105.55 8.39707 105.45 7.87665 105.25 7.54548C105.05 7.21431 104.65 7.04872 104.05 7.04872H103.625V6.62292H109.225C110.6 6.62292 111.85 6.90679 112.95 7.45086C114.05 8.01858 114.6 9.08307 114.6 10.6916C114.6 11.7561 114.3 12.5604 113.725 13.1518C113.15 13.7195 112.5 14.098 111.8 14.2872C111.1 14.4765 110.425 14.5711 109.85 14.5711H107.475V20.1064H105.525V9.08307H105.55ZM110.575 13.5539C111.1 13.341 111.525 12.9625 111.9 12.4894C112.275 11.9927 112.45 11.3776 112.45 10.6207C112.45 9.86369 112.275 9.24866 111.9 8.7519C111.525 8.25514 111.1 7.90031 110.575 7.68741C110.05 7.47451 109.575 7.35624 109.1 7.35624C108.6 7.35624 108.05 7.4272 107.475 7.56913V13.6958C108.05 13.8378 108.6 13.9087 109.1 13.9087C109.55 13.8851 110.05 13.7668 110.575 13.5539Z" fill="white"/>
<path d="M125.15 19.657C124.475 19.3021 123.925 18.5925 123.525 17.5516L122.975 16.227H116.925L115.225 20.1064H114.25L120.3 6.62292H120.95L125.7 17.5516C126.05 18.3323 126.4 18.8763 126.725 19.1839C127.05 19.4677 127.5 19.657 128.075 19.7043V20.1064C127.825 20.1774 127.525 20.201 127.2 20.201C126.5 20.201 125.825 20.0354 125.15 19.657ZM117.275 15.4227H122.55L119.95 9.50886L117.275 15.4227Z" fill="white"/>
<path d="M140.202 20.9343C139.777 20.3903 139.177 20.1064 138.402 20.1064H129.777V9.08307C129.777 8.39707 129.677 7.87665 129.477 7.54548C129.277 7.21431 128.877 7.04872 128.277 7.04872H127.852V6.62292H129.802C130.327 6.62292 130.727 6.69389 131.002 6.81217C131.277 6.93044 131.452 7.16699 131.577 7.52182C131.702 7.853 131.752 8.37341 131.752 9.08307V19.2785H138.227V6.62292H140.177V19.2785H141.352C141.577 19.2785 141.752 19.3494 141.902 19.4914C142.052 19.6333 142.127 19.7989 142.127 20.0118V23.7966H141.152C140.927 22.4246 140.627 21.4784 140.202 20.9343Z" fill="white"/>
<path d="M144.753 9.08307C144.753 8.39707 144.653 7.87665 144.453 7.54548C144.253 7.21431 143.853 7.04872 143.253 7.04872H142.828V6.62292H144.778C145.303 6.62292 145.703 6.69389 145.978 6.81217C146.253 6.93044 146.428 7.16699 146.553 7.52182C146.678 7.853 146.728 8.37341 146.728 9.08307V18.2613L153.603 6.62292H155.553V20.1064H153.603V8.46803L146.703 20.1064H144.753V9.08307Z" fill="white"/>
<path d="M157.703 20.0822V19.7037C158.228 19.6564 158.678 19.4908 159.053 19.207C159.428 18.9231 159.778 18.5446 160.078 18.0715L162.353 14.4049C161.478 14.192 160.728 13.8136 160.128 13.2458C159.528 12.6781 159.228 11.8265 159.228 10.7384C159.228 9.12982 159.778 8.04168 160.878 7.49761C161.978 6.92989 163.228 6.66968 164.603 6.66968H170.003V7.07182H169.778C169.178 7.07182 168.778 7.2374 168.578 7.56858C168.378 7.89975 168.278 8.42017 168.278 9.10617V20.1059H166.328V14.5942H164.253L161.978 18.4736C161.578 19.1596 161.153 19.6564 160.678 19.9166C160.228 20.1768 159.653 20.3188 159.003 20.3188C158.603 20.3188 158.178 20.2241 157.703 20.0822ZM166.328 13.6716V7.54492C165.753 7.40299 165.203 7.33202 164.703 7.33202C164.253 7.33202 163.753 7.4503 163.228 7.6632C162.703 7.8761 162.278 8.25458 161.903 8.72768C161.528 9.22444 161.353 9.83948 161.353 10.5964C161.353 11.3534 161.528 11.9685 161.903 12.4652C162.278 12.962 162.703 13.3168 163.228 13.5297C163.753 13.7426 164.228 13.8609 164.703 13.8609C165.228 13.8845 165.753 13.8136 166.328 13.6716Z" fill="white"/>
<path d="M62.125 39.3622C62.125 39.1494 62.2 38.9838 62.35 38.8418C62.5 38.6999 62.675 38.6289 62.9 38.6289H63.775C64.425 37.2569 64.9 35.743 65.2 34.0635C65.475 32.384 65.625 30.4915 65.625 28.4099C65.625 27.7239 65.525 27.2035 65.325 26.8723C65.125 26.5411 64.725 26.3755 64.125 26.3755H63.75V25.9734H74.525V38.6289H75.7C75.925 38.6289 76.1 38.6999 76.25 38.8418C76.4 38.9838 76.475 39.1494 76.475 39.3622V43.1471H75.5C75.325 41.7751 75.025 40.8289 74.625 40.2848C74.2 39.7407 73.6 39.4569 72.825 39.4569H65.825C65.025 39.4569 64.425 39.7407 64.025 40.2848C63.6 40.8289 63.325 41.7751 63.15 43.1471H62.175V39.3622H62.125ZM72.6 38.6289V26.7777H67C67 29.5926 66.875 31.9345 66.6 33.7796C66.325 35.6247 65.9 37.2333 65.275 38.6289H72.6Z" fill="white"/>
<path d="M79.725 39.055C80.475 39.055 81.15 38.9367 81.725 38.7001C82.325 38.4636 82.725 38.0851 82.95 37.5174L83.175 36.9969L79.175 28.623C78.95 28.1262 78.75 27.7477 78.55 27.4639C78.35 27.18 78.075 26.9435 77.7 26.7306C77.35 26.5177 76.85 26.3994 76.25 26.3757V25.9736H78.85C79.475 25.9736 79.975 26.1628 80.375 26.565C80.775 26.9671 81.125 27.5112 81.45 28.1972L84.375 34.3239L88.25 25.95H89.55L84.25 37.5174C83.6 38.9367 82.45 39.67 80.825 39.67H79.75V39.055H79.725Z" fill="white"/>
<path d="M92.2766 28.4332C92.2766 27.7472 92.1766 27.2268 91.9766 26.8956C91.7766 26.5644 91.3766 26.3988 90.7766 26.3988H90.3516V25.9967H92.3016C92.8266 25.9967 93.2266 26.0677 93.5016 26.1859C93.7766 26.3042 93.9516 26.5408 94.0766 26.8956C94.2016 27.2268 94.2516 27.7472 94.2516 28.4568V38.6523H99.3265V25.9967H101.277V38.6523H106.352V25.9967H108.302V39.4802H92.3266V28.4332H92.2766Z" fill="white"/>
<path d="M112.374 28.4335C112.374 27.7475 112.274 27.2271 112.074 26.8959C111.874 26.5648 111.474 26.3992 110.874 26.3992H110.449V25.997H112.399C112.924 25.997 113.324 26.068 113.599 26.1863C113.874 26.3046 114.049 26.5411 114.174 26.8959C114.299 27.2271 114.349 27.7475 114.349 28.4572V37.6118L121.249 25.9734H123.199V39.4569H121.249V27.8185L114.349 39.4569H112.399V28.4335H112.374Z" fill="white"/>
<path d="M21.3238 27.9603C21.3988 27.9839 21.4488 27.9839 21.5238 27.9839C21.9238 27.9839 22.2988 27.7237 22.3988 27.3216C22.4988 26.8721 22.1988 26.4227 21.7238 26.3281C13.3738 24.5539 7.44877 17.6466 7.37377 9.50919C7.37377 9.05974 6.97377 8.68126 6.47377 8.68126C6.24877 8.68126 6.07377 8.75222 5.92377 8.8705C5.82377 8.94146 5.74877 9.03608 5.69877 9.1307C5.64877 9.24898 5.59877 9.36726 5.59877 9.50919C5.64877 13.8381 7.27377 18.0487 10.1488 21.3841C12.9738 24.7195 16.9488 27.0377 21.3238 27.9603ZM23.1738 3.78462C22.5738 4.04483 22.0238 4.376 21.5238 4.8018L21.4988 4.82545C21.1238 5.15662 20.7738 5.51145 20.4988 5.91359C20.4738 5.93725 20.4738 5.9609 20.4488 5.9609C20.3988 6.00821 20.3738 6.07918 20.3238 6.12649C20.2988 6.1738 20.2738 6.19745 20.2488 6.24477C20.2238 6.29208 20.1988 6.33939 20.1738 6.3867C20.1488 6.43401 20.1238 6.48132 20.0738 6.55228C20.0488 6.57594 20.0488 6.62325 20.0238 6.6469C19.9988 6.71787 19.9488 6.78884 19.9238 6.8598C19.9238 6.88346 19.8988 6.90711 19.8988 6.93077C19.8488 7.00173 19.8238 7.09635 19.7988 7.16732V7.19097C19.7488 7.2856 19.7238 7.38022 19.6988 7.47484C19.5238 7.9716 19.4238 8.46836 19.3988 9.01243V9.03608C19.3988 9.1307 19.3988 9.24898 19.3988 9.3436C19.3988 9.48553 19.3988 9.65112 19.4238 9.79305C19.4238 9.81671 19.4238 9.86402 19.4238 9.88767C19.4488 10.0296 19.4488 10.1715 19.4738 10.3135C19.4738 10.3371 19.4738 10.3844 19.4988 10.4081C19.5238 10.55 19.5488 10.6683 19.5738 10.7866C19.5738 10.8102 19.5738 10.8339 19.5988 10.8339C19.6238 10.9758 19.6738 11.0941 19.7238 11.236C19.7238 11.2597 19.7488 11.2833 19.7488 11.307C19.7488 11.307 19.7488 11.3306 19.7738 11.3306C20.0238 11.993 20.3988 12.6317 20.8738 13.1521C20.8988 12.4424 21.1738 11.7328 21.6988 11.2597C21.5988 11.0704 21.5238 10.8812 21.4488 10.6683C21.4238 10.5737 21.3988 10.5027 21.3738 10.4081C21.3738 10.3844 21.3488 10.3608 21.3488 10.3371C21.3238 10.2425 21.2988 10.1715 21.2988 10.0769C21.2988 10.0533 21.2988 10.0296 21.2738 10.0059C21.2488 9.91133 21.2488 9.79305 21.2238 9.69843C21.2238 9.67478 21.2238 9.65112 21.2238 9.62747C21.2238 9.50919 21.1988 9.41457 21.1988 9.29629C21.1988 9.22533 21.1988 9.1307 21.1988 9.05974C21.1988 9.05974 21.1988 9.05974 21.1988 9.03608C21.2238 8.58663 21.3238 8.13718 21.4988 7.71139V7.68774C21.5238 7.61677 21.5488 7.56946 21.5738 7.49849C21.5738 7.47484 21.5988 7.47484 21.5988 7.45118C21.6238 7.40387 21.6488 7.35656 21.6738 7.30925C21.6738 7.2856 21.6988 7.26194 21.6988 7.23829C21.7238 7.19097 21.7488 7.16732 21.7738 7.12001C21.7988 7.09635 21.7988 7.04904 21.8238 7.02539C21.8488 7.00173 21.8488 6.97808 21.8738 6.95442C21.8988 6.90711 21.9238 6.88346 21.9488 6.83615C21.9488 6.81249 21.9738 6.81249 21.9738 6.78884C21.9988 6.74153 22.0488 6.69421 22.0738 6.6469C22.1488 6.55228 22.2488 6.45766 22.3238 6.36304C22.3738 6.31573 22.3988 6.26842 22.4488 6.24477C22.4988 6.19745 22.5488 6.15014 22.5988 6.10283C22.6738 6.03187 22.7738 5.9609 22.8738 5.88994C22.9738 5.81897 23.0488 5.74801 23.1488 5.67704C22.9988 5.062 22.9488 4.44697 23.1488 3.83193C23.1488 3.83193 23.1488 3.80828 23.1738 3.78462ZM0.823769 19.3025C4.17377 26.7775 11.1238 32.3601 19.4488 34.2526C19.5238 34.2762 19.5988 34.2762 19.6488 34.2762C20.0488 34.2762 20.4238 34.016 20.5238 33.6375C20.6488 33.1881 20.3488 32.7386 19.8738 32.6204C12.0238 30.8462 5.49877 25.5711 2.39877 18.5455C2.19877 18.1197 1.69877 17.9068 1.24877 18.096C1.19877 18.1197 1.14877 18.1434 1.09877 18.167C0.748769 18.3799 0.623769 18.8057 0.773769 19.1842C0.773769 19.2315 0.798769 19.2788 0.823769 19.3025ZM2.64877 14.0273C4.49877 22.2357 11.2738 28.9065 19.8738 30.9881C19.9488 31.0118 20.0238 31.0118 20.0988 31.0118C20.4988 31.0118 20.8488 30.7516 20.9488 30.3731C21.0738 29.9237 20.7738 29.4742 20.2988 29.3559C12.3488 27.4399 6.09877 21.2658 4.37377 13.6725C4.27377 13.2231 3.79877 12.9392 3.32377 13.0338C3.19877 13.0575 3.09877 13.1048 3.02377 13.1521C2.77377 13.3177 2.59877 13.6015 2.64877 13.9091C2.62377 13.9564 2.64877 13.98 2.64877 14.0273ZM22.0238 21.4078C22.0988 21.4314 22.1988 21.4314 22.2738 21.4314C22.6488 21.4314 23.0238 21.1949 23.1238 20.8164C23.2738 20.3669 22.9988 19.8938 22.5238 19.7756C17.6488 18.4509 14.2488 14.1456 14.2488 9.31995C14.2488 7.23829 14.8738 5.22759 16.0488 3.4771C16.3238 3.07496 16.1988 2.55455 15.7738 2.318C15.3488 2.05779 14.7988 2.17606 14.5488 2.5782C13.1988 4.5889 12.4738 6.93077 12.4738 9.31995C12.4738 14.8789 16.3988 19.8465 22.0238 21.4078ZM19.7988 37.6826C19.8488 37.6826 19.9238 37.7062 19.9738 37.7062C20.3988 37.7062 20.7488 37.4224 20.8488 37.0202C20.9488 36.5708 20.6238 36.1213 20.1488 36.0267C12.5988 34.6074 5.84877 30.2785 1.62377 24.1281C1.34877 23.7496 0.798769 23.6314 0.398769 23.8916C0.373769 23.8916 0.373769 23.9152 0.348769 23.9389C-0.0262314 24.1991 -0.126231 24.6959 0.148769 25.0743C0.223769 25.1926 0.323769 25.3345 0.423769 25.4528C4.89877 31.7451 11.9488 36.1923 19.7988 37.6826ZM31.2238 29.3796C30.7488 29.4979 30.4738 29.9473 30.5738 30.3968C30.6738 30.7752 31.0488 31.0355 31.4238 31.0355C31.4988 31.0355 31.5738 31.0355 31.6488 31.0118C40.2488 28.9301 47.0238 22.2594 48.8738 14.0273C48.8738 13.98 48.8738 13.9564 48.8988 13.9091C48.9238 13.6015 48.7738 13.3177 48.5238 13.1521C48.4238 13.1048 48.3238 13.0575 48.2238 13.0338C47.7488 12.9392 47.2738 13.2231 47.1738 13.6725C45.4488 21.2658 39.1988 27.4399 31.2238 29.3796ZM31.6988 32.6204C31.2238 32.7386 30.9238 33.1881 31.0488 33.6375C31.1488 34.016 31.4988 34.2762 31.9238 34.2762C31.9988 34.2762 32.0738 34.2762 32.1238 34.2526C40.4488 32.3601 47.3988 26.7775 50.7488 19.3025C50.7738 19.2551 50.7988 19.2078 50.7988 19.1842C50.9738 18.8057 50.8238 18.3799 50.4738 18.167C50.4238 18.1434 50.3738 18.1197 50.3238 18.096C49.8738 17.9068 49.3488 18.1197 49.1738 18.5455C46.0488 25.5711 39.5238 30.8462 31.6988 32.6204ZM28.6988 5.93725C28.7238 5.9609 28.7488 5.98456 28.7988 6.00821C28.8738 6.05552 28.9238 6.12649 28.9988 6.1738C29.0238 6.19745 29.0488 6.22111 29.0988 6.26842C29.1738 6.33939 29.2738 6.43401 29.3488 6.52863C29.4488 6.62325 29.5238 6.74153 29.6238 6.8598C29.6238 6.88346 29.6488 6.88346 29.6488 6.90711C29.6738 6.95442 29.6988 6.97808 29.7238 7.02539C29.7488 7.04904 29.7488 7.0727 29.7738 7.09635C29.7988 7.12001 29.8238 7.16732 29.8238 7.19097C29.8488 7.23829 29.8738 7.26194 29.8988 7.30925C29.9238 7.33291 29.9238 7.35656 29.9238 7.38022C29.9488 7.42753 29.9738 7.47484 29.9988 7.52215C29.9988 7.5458 30.0238 7.5458 30.0238 7.56946C30.0488 7.64042 30.0738 7.68774 30.0988 7.7587V7.78236C30.1238 7.85332 30.1488 7.92429 30.1738 7.99525C30.2988 8.35008 30.3738 8.72857 30.3988 9.10705C30.3988 9.10705 30.3988 9.10705 30.3988 9.1307C30.3988 9.20167 30.3988 9.27264 30.3988 9.36726C30.3988 9.48553 30.3988 9.58015 30.3738 9.69843C30.3738 9.72209 30.3738 9.74574 30.3738 9.7694C30.3738 9.86402 30.3488 9.98229 30.3238 10.0769C30.3238 10.1006 30.3238 10.1242 30.2988 10.1479C30.2738 10.2425 30.2738 10.3135 30.2488 10.4081C30.2488 10.4317 30.2238 10.4554 30.2238 10.5027C30.1988 10.5973 30.1738 10.6683 30.1488 10.7629C30.0738 10.9758 29.9988 11.1651 29.8988 11.3543C30.4238 11.8274 30.6738 12.5371 30.7238 13.2467C31.1988 12.7026 31.5738 12.0876 31.8238 11.4253C31.8238 11.4253 31.8238 11.4016 31.8488 11.4016C31.8488 11.378 31.8738 11.3543 31.8738 11.3306C31.9238 11.2124 31.9738 11.0704 31.9988 10.9285C31.9988 10.9048 31.9988 10.8812 32.0238 10.8575C32.0488 10.7393 32.0738 10.5973 32.0988 10.4791C32.0988 10.4554 32.1238 10.4081 32.1238 10.3844C32.1488 10.2425 32.1738 10.1006 32.1738 9.95864C32.1738 9.93498 32.1738 9.88767 32.1738 9.86402C32.1738 9.72209 32.1988 9.5565 32.1988 9.41457C32.1988 9.29629 32.1988 9.20167 32.1988 9.10705V9.0834C32.1738 8.53932 32.0738 8.04256 31.8988 7.5458C31.8738 7.45118 31.8238 7.35656 31.7988 7.26194C31.7988 7.26194 31.7988 7.23829 31.7738 7.23829C31.7488 7.14366 31.6988 7.0727 31.6738 7.00173C31.6738 6.97808 31.6488 6.95442 31.6488 6.93077C31.6238 6.8598 31.5738 6.78884 31.5488 6.71787C31.5238 6.69421 31.5238 6.6469 31.4988 6.62325C31.4738 6.57594 31.4488 6.52863 31.3988 6.45766C31.3738 6.41035 31.3488 6.36304 31.3238 6.31573C31.2988 6.26842 31.2738 6.24477 31.2488 6.19745C31.2238 6.15014 31.1738 6.07918 31.1238 6.03187C31.0988 6.00821 31.0988 5.98456 31.0738 5.98456C30.7988 5.58242 30.4488 5.22759 30.0738 4.89642L30.0488 4.87276C29.5488 4.47062 28.9988 4.11579 28.3988 3.85559C28.3988 3.87924 28.4238 3.9029 28.4238 3.95021C28.5988 4.56524 28.5738 5.20393 28.4238 5.79532C28.4988 5.79532 28.5988 5.86628 28.6988 5.93725ZM29.8238 26.3281C29.3488 26.4227 29.0488 26.8721 29.1488 27.3216C29.2488 27.7237 29.5988 27.9839 30.0238 27.9839C30.0988 27.9839 30.1488 27.9839 30.2238 27.9603C34.5988 27.0377 38.5738 24.6959 41.4238 21.4078C44.3238 18.0724 45.9238 13.8381 45.9738 9.53284C45.9738 9.39091 45.9488 9.27264 45.8738 9.15436C45.8238 9.05974 45.7488 8.96512 45.6488 8.89415C45.4988 8.77588 45.2988 8.70491 45.0988 8.70491C44.5988 8.70491 44.1988 9.08339 44.1988 9.53284C44.0988 17.6466 38.1988 24.5539 29.8238 26.3281ZM37.2988 9.31995C37.2988 14.1456 33.8988 18.4509 28.9988 19.7992C28.5238 19.9411 28.2488 20.3906 28.3988 20.84C28.5238 21.2185 28.8738 21.4551 29.2488 21.4551C29.3238 21.4551 29.4238 21.4551 29.4988 21.4314C35.1238 19.8702 39.0738 14.9026 39.0738 9.3436C39.0738 6.95442 38.3488 4.61255 36.9988 2.60186C36.7238 2.19972 36.1738 2.1051 35.7738 2.34165C35.3488 2.60186 35.2488 3.12227 35.4988 3.50076C36.6738 5.22759 37.2988 7.23829 37.2988 9.31995ZM33.8488 9.31995C33.8488 11.7564 32.5988 14.0746 30.5238 15.5176C30.1238 15.8015 30.0488 16.3219 30.3238 16.7004C30.4988 16.9369 30.7738 17.0552 31.0488 17.0552C31.2238 17.0552 31.4238 17.0079 31.5738 16.8896C34.1238 15.1391 35.6488 12.3242 35.6488 9.3436C35.6488 4.68352 31.9738 0.685784 27.0738 0.0944032C26.6488 0.0470927 26.2238 0.0234375 25.7988 0.0234375C25.3738 0.0234375 24.9488 0.0470927 24.5238 0.0944032C19.5988 0.685784 15.9238 4.65986 15.9238 9.31995C15.9238 12.3005 17.4488 15.1155 19.9988 16.866C20.1488 16.9842 20.3488 17.0316 20.5238 17.0316C20.7988 17.0316 21.0738 16.9133 21.2488 16.6767C21.5488 16.2982 21.4488 15.7778 21.0488 15.494C18.9738 14.051 17.7238 11.7564 17.7238 9.29629C17.7238 5.46414 20.7488 2.19972 24.7488 1.72661C25.0988 1.6793 25.4488 1.65565 25.7988 1.65565C26.1488 1.65565 26.4988 1.6793 26.8488 1.72661C30.8238 2.24703 33.8488 5.4878 33.8488 9.31995ZM46.6238 37.6116C46.3488 37.2804 45.8238 37.2095 45.4488 37.446C40.7488 40.4029 35.3238 42.2717 29.7238 42.8394C29.2238 42.8867 28.8738 43.3125 28.9488 43.762C28.9988 44.1878 29.3738 44.5189 29.8238 44.5189C29.8488 44.5189 29.8988 44.5189 29.9238 44.5189C35.1488 43.9749 40.2488 42.3663 44.7738 39.8352C45.3488 39.5277 45.8988 39.1965 46.4488 38.8417C46.8488 38.5815 46.9738 38.0611 46.6988 37.6826C46.6738 37.6589 46.6488 37.6353 46.6238 37.6116ZM36.4738 45.7017C36.3238 45.2996 35.8738 45.0867 35.4238 45.1813C33.2488 45.7017 31.0238 46.0565 28.7988 46.1985C28.2988 46.2221 27.9488 46.6479 27.9738 47.0974C27.9988 47.4049 28.1988 47.6414 28.4488 47.7834C28.5738 47.8543 28.6988 47.878 28.8488 47.878C28.8738 47.878 28.8988 47.878 28.9238 47.878C31.2738 47.7124 33.5988 47.3576 35.8488 46.8135C36.3238 46.6952 36.6238 46.2458 36.4988 45.7963C36.4988 45.7727 36.4738 45.7254 36.4738 45.7017ZM28.6988 24.9088C28.7488 24.9088 28.7988 24.9087 28.8738 24.8851C36.7738 23.4894 42.5238 16.9369 42.5238 9.29629C42.5238 8.08987 42.3738 6.88346 42.0988 5.7007C41.9988 5.25125 41.4988 4.96738 41.0238 5.062C40.5488 5.15662 40.2488 5.62973 40.3488 6.07918C40.5988 7.12001 40.7238 8.20815 40.7238 9.27264C40.7238 16.0853 35.5988 21.9518 28.5238 23.2056C28.0488 23.3002 27.7238 23.726 27.8238 24.1754C27.8988 24.6485 28.2738 24.9088 28.6988 24.9088ZM51.1988 23.9152C51.1738 23.8916 51.1738 23.8916 51.1488 23.8679C50.7488 23.6077 50.1988 23.726 49.9238 24.1045C45.6988 30.2548 38.9488 34.5837 31.3988 36.0031C30.9238 36.0977 30.5988 36.5471 30.6988 36.9966C30.7738 37.3987 31.1488 37.6826 31.5738 37.6826C31.6238 37.6826 31.6988 37.6826 31.7488 37.6589C39.6238 36.1923 46.6488 31.7215 51.1488 25.4055C51.2488 25.2872 51.3238 25.169 51.4238 25.027C51.6488 24.6722 51.5488 24.1754 51.1988 23.9152ZM50.2488 30.3731C49.8988 30.0656 49.3488 30.0892 49.0238 30.4204C44.1238 35.2461 37.5988 38.4632 30.6488 39.4567C30.1738 39.5277 29.8238 39.9535 29.8988 40.4029C29.9738 40.8287 30.3488 41.1126 30.7738 41.1126C30.8238 41.1126 30.8738 41.1126 30.8988 41.1126C37.9238 40.0954 44.5238 36.9729 49.5988 32.2419C49.8238 32.029 50.0738 31.8161 50.2988 31.5795C50.6488 31.2484 50.6238 30.7279 50.2488 30.3731C50.2738 30.3968 50.2488 30.3731 50.2488 30.3731ZM22.7488 46.2221C20.4988 46.0565 18.2738 45.7254 16.1238 45.2049C15.6738 45.1103 15.2488 45.3232 15.0738 45.7254C15.0488 45.749 15.0488 45.7963 15.0488 45.82C14.9238 46.2694 15.2238 46.7189 15.6988 46.8372C17.9488 47.3812 20.2988 47.7361 22.6238 47.9016C22.6488 47.9016 22.6738 47.9016 22.6988 47.9016C22.8488 47.9016 22.9738 47.8543 23.0988 47.807C23.3738 47.6887 23.5488 47.4285 23.5738 47.121C23.5988 46.6479 23.2238 46.2458 22.7488 46.2221ZM21.6988 44.5426C22.1488 44.5426 22.5238 44.2351 22.5738 43.7856C22.6238 43.3125 22.2738 42.9104 21.7988 42.8631C16.1988 42.2717 10.7738 40.4029 6.07377 37.4697C5.69877 37.2331 5.19877 37.3041 4.89877 37.6353C4.87377 37.6589 4.84877 37.6826 4.82377 37.7062C4.54877 38.0847 4.67377 38.6051 5.07377 38.8653C5.62377 39.1965 6.17377 39.5277 6.74877 39.8589C11.2738 42.39 16.3738 43.9985 21.5988 44.5426C21.6488 44.5426 21.6738 44.5426 21.6988 44.5426ZM20.7738 41.1362C21.1988 41.1362 21.5738 40.8287 21.6488 40.4266C21.7238 39.9771 21.3988 39.5277 20.8988 39.4804C13.9488 38.4869 7.42377 35.2697 2.52377 30.4441C2.19877 30.1129 1.64877 30.0892 1.29877 30.3968C1.29877 30.3968 1.27377 30.3968 1.27377 30.4204C0.923769 30.7516 0.898769 31.272 1.24877 31.6032C1.47377 31.8161 1.69877 32.0526 1.94877 32.2655C7.02377 36.9966 13.6238 40.1427 20.6488 41.1362C20.6738 41.1362 20.7238 41.1362 20.7738 41.1362ZM22.7988 9.31995C22.7988 9.74574 22.8988 10.1479 23.0738 10.5027C23.7488 10.1952 24.4238 9.84036 24.5738 9.24898C24.5738 9.22533 24.5738 9.22533 24.5738 9.20167C24.5738 9.15436 24.5988 9.10705 24.5988 9.0834C24.6488 8.4447 24.1988 7.80601 23.7988 7.21463C23.1988 7.73505 22.7988 8.49201 22.7988 9.31995ZM28.7238 9.31995C28.7238 8.49201 28.3238 7.73505 27.7238 7.21463C27.3488 7.80601 26.8738 8.4447 26.9238 9.0834C26.9238 9.1307 26.9488 9.17802 26.9488 9.20167C26.9488 9.22533 26.9488 9.22533 26.9488 9.24898C27.0988 9.84036 27.7738 10.1952 28.4488 10.5027C28.6238 10.1479 28.7238 9.74574 28.7238 9.31995ZM22.9988 23.2529C15.9238 21.9992 10.7988 16.1563 10.7988 9.31995C10.7988 8.23181 10.9238 7.16732 11.1738 6.12649C11.2738 5.67704 10.9988 5.22759 10.4988 5.10931C10.0238 5.01469 9.54877 5.2749 9.42377 5.748C9.14877 6.90711 8.99877 8.11353 8.99877 9.3436C8.99877 16.9606 14.7488 23.5131 22.6488 24.9324C22.6988 24.9324 22.7488 24.9561 22.8238 24.9561C23.2488 24.9561 23.6238 24.6722 23.6988 24.2701C23.7988 23.7733 23.4738 23.3475 22.9988 23.2529Z" fill="white"/>
</svg>
